<svg width="93" height="85" viewBox="0 0 93 85" fill="none" xmlns="http://www.w3.org/2000/svg">
<g filter="url(#filter0_d_1310_3)">
<path d="M49.9562 22.3113C50.879 21.4796 51.3899 20.3732 51.3899 19.1926C51.3899 16.757 49.19 14.7818 46.4957 14.7818C43.8015 14.7818 41.6016 16.7644 41.6016 19.1926C41.6016 20.3732 42.1125 21.4796 43.0353 22.3113L59.7444 37.3776L56.284 40.4963L39.5748 25.43C37.8033 23.8335 36.7075 21.6207 36.7075 19.1851C36.7075 14.314 41.0908 10.3636 46.4957 10.3636C51.9007 10.3636 56.284 14.314 56.284 19.1851C56.284 21.6207 55.1881 23.8261 53.4167 25.4225L49.9562 22.3113Z" fill="#3DD2CC"/>
<path d="M49.9565 22.3112L50.6238 22.9127C51.7279 21.9251 52.3376 20.5885 52.3376 19.1851C52.3376 16.2817 49.7175 13.9204 46.496 13.9204C43.2744 13.9204 40.6626 16.2817 40.6544 19.1851C40.6544 20.5885 41.2641 21.9176 42.3681 22.9127L58.4099 37.3775L56.2924 39.2859L40.2424 24.8284C38.6357 23.3805 37.6553 21.3904 37.6553 19.1925C37.6553 18.9697 37.5564 18.747 37.3751 18.591C37.1939 18.4351 36.9549 18.3386 36.7078 18.3386C36.4606 18.3386 36.2134 18.4277 36.0404 18.591C35.8674 18.7544 35.7603 18.9697 35.7603 19.1925C35.7603 19.4152 35.8591 19.638 36.0404 19.7939C36.2217 19.9499 36.4606 20.0464 36.7078 20.0464C36.9549 20.0464 37.2021 19.9573 37.3751 19.7939C37.5482 19.6306 37.6553 19.4152 37.6553 19.1925C37.6635 14.7892 41.6184 11.2324 46.496 11.2249C51.3819 11.2324 55.3285 14.7966 55.3367 19.1925C55.3367 21.3979 54.348 23.3805 52.7496 24.8284L53.417 25.4299L54.0843 24.8284L50.6238 21.7097L49.9565 22.3112L50.6238 22.9127L49.9565 22.3112L49.2891 22.9127L52.7496 26.0314C52.9226 26.1873 53.1698 26.2838 53.417 26.2838C53.6641 26.2838 53.9113 26.1947 54.0843 26.0314C56.0288 24.2789 57.2317 21.8582 57.2317 19.1851C57.2317 13.8387 52.4282 9.50964 46.496 9.50964C40.5637 9.50964 35.7603 13.8387 35.7603 19.1851C35.7603 19.4078 35.8591 19.6306 36.0404 19.7865C36.2217 19.9425 36.4606 20.039 36.7078 20.039C36.9549 20.039 37.2021 19.9499 37.3751 19.7865C37.5482 19.6232 37.6553 19.4078 37.6553 19.1851C37.6553 18.9623 37.5564 18.7395 37.3751 18.5836C37.1939 18.4277 36.9549 18.3311 36.7078 18.3311C36.4606 18.3311 36.2134 18.4202 36.0404 18.5836C35.8674 18.747 35.7603 18.9623 35.7603 19.1851C35.7603 21.8508 36.9632 24.2789 38.9076 26.0314L55.6251 41.0903C55.9958 41.4244 56.5973 41.4244 56.9681 41.0903L60.4285 37.9715C60.6016 37.8156 60.7087 37.5928 60.7087 37.3701C60.7087 37.1473 60.6098 36.9246 60.4285 36.7686L43.7029 21.7097C42.9531 21.034 42.5494 20.1504 42.5412 19.1925C42.5412 17.2322 44.3126 15.6357 46.4877 15.6357C48.6629 15.6357 50.4343 17.2322 50.4343 19.1925C50.4343 20.1504 50.0306 21.034 49.2809 21.7097C49.0996 21.8731 49.0007 22.0884 49.0007 22.3112C49.0007 22.5414 49.0996 22.7567 49.2809 22.9127L49.9565 22.3112Z" fill="#3DD2CC"/>
<path d="M66.6658 43.615C67.5886 44.4466 68.8162 44.907 70.1262 44.907C72.8205 44.907 75.0204 42.9244 75.0204 40.4963C75.0204 38.0607 72.8287 36.0855 70.1345 36.0855C68.8244 36.0855 67.5968 36.5459 66.674 37.3776L49.9566 52.4365L46.4961 49.3178L63.2135 34.2589C64.985 32.6624 67.432 31.6748 70.1345 31.6748C75.5394 31.6748 79.9227 35.6252 79.9227 40.5037C79.9227 45.3823 75.5394 49.3252 70.1345 49.3252C67.432 49.3252 64.985 48.3376 63.2135 46.7411L66.6658 43.615Z" fill="#3DD2CC"/>
<path d="M66.6655 43.6149L65.9981 44.2164C67.094 45.2114 68.577 45.7609 70.1342 45.7609C73.3558 45.7609 75.9759 43.3996 75.9759 40.4962C75.9759 37.5928 73.364 35.2315 70.1425 35.2315C69.8871 35.2315 69.6481 35.3206 69.4751 35.484C69.2938 35.6474 69.195 35.8627 69.195 36.0855H70.1425V35.2315C68.5853 35.2315 67.1104 35.781 66.0064 36.7686L49.9563 51.2335L47.8388 49.3251L63.8807 34.8603C65.4873 33.4197 67.6872 32.5287 70.1342 32.5287C70.5709 32.5287 70.9582 32.2539 71.057 31.8678C71.1559 31.4817 70.9499 31.0807 70.5544 30.9099L70.1342 31.6747V32.5287C75.0201 32.5361 78.9667 36.1003 78.9749 40.5036C78.9667 44.907 75.0119 48.4638 70.1342 48.4712C67.6872 48.4712 65.4873 47.5801 63.8807 46.1396L63.2133 46.741L63.8807 47.3425L67.3411 44.2238L66.6655 43.6149L65.9981 44.2164L66.6655 43.6149L65.9981 43.0135L62.5377 46.1322C62.1669 46.4663 62.1669 47.0084 62.5377 47.3425C64.4739 49.0949 67.1681 50.1791 70.1342 50.1791C76.0665 50.1791 80.87 45.85 80.87 40.5036C80.87 35.1573 76.0665 30.8208 70.1342 30.8208C69.6976 30.8208 69.3103 31.0955 69.2114 31.4817C69.1126 31.8678 69.3186 32.2688 69.714 32.4396L70.1342 31.6747V30.8208C67.1681 30.8208 64.4821 31.9049 62.5377 33.6573L45.8285 48.7162C45.6554 48.8722 45.5483 49.0949 45.5483 49.3177C45.5483 49.5405 45.6472 49.7632 45.8285 49.9192L49.289 53.0379C49.6597 53.372 50.2612 53.372 50.632 53.0379L67.3411 37.979C68.0991 37.3033 69.0714 36.9394 70.1342 36.9394C70.3814 36.9394 70.6286 36.8503 70.8016 36.6869C70.9746 36.5236 71.0818 36.3082 71.0818 36.0855H70.1342V36.9394C72.3094 36.9394 74.0808 38.5359 74.0726 40.4962C74.0726 42.4565 72.3012 44.053 70.126 44.053C69.0631 44.053 68.0827 43.6892 67.3329 43.0135C67.1516 42.8501 66.9127 42.761 66.6655 42.761C66.4101 42.761 66.1712 42.8501 65.9981 43.0135L66.6655 43.6149Z" fill="#3DD2CC"/>
<path d="M26.318 37.3776C25.3869 36.546 24.1675 36.0856 22.8575 36.0856C20.155 36.0856 17.9634 38.0682 17.9634 40.4963C17.9634 42.9319 20.155 44.9071 22.8575 44.9145C24.1675 44.9145 25.3952 44.4541 26.318 43.6225L43.0354 28.5562L46.4959 31.6749L29.7785 46.7338C28.007 48.3302 25.5517 49.3178 22.8493 49.3178C17.4361 49.3178 13.061 45.3675 13.061 40.4889C13.061 35.6178 17.4443 31.6674 22.8493 31.6674C25.5517 31.6674 27.9988 32.655 29.7702 34.2515L26.318 37.3776Z" fill="#3DD2CC"/>
<path d="M26.3177 37.3776L26.9851 36.7761C25.8893 35.7811 24.4062 35.2316 22.849 35.2316C19.6275 35.2316 17.0074 37.5929 17.0074 40.4963C17.0074 43.3996 19.6192 45.7609 22.849 45.7684C23.1044 45.7684 23.3434 45.6793 23.5164 45.5159C23.6977 45.3525 23.7965 45.1372 23.7965 44.9144H22.849V45.7684C24.4062 45.7684 25.8811 45.2189 26.9851 44.2239L43.0352 29.759L45.1526 31.6674L29.1108 46.1322C27.5042 47.5728 25.2961 48.4638 22.8573 48.4712C22.4371 48.4712 22.0745 48.7163 21.9509 49.0727C21.8273 49.4291 21.9839 49.8227 22.3299 50.0306L22.8573 49.3252V48.4712C17.9714 48.4564 14.0248 44.8996 14.0165 40.4963C14.0248 36.0929 17.9714 32.5361 22.8573 32.5287C25.3043 32.5287 27.5042 33.4198 29.1108 34.8603L29.7782 34.2589L29.1108 33.6574L25.6504 36.7761L26.3177 37.3776L26.9851 36.7761L26.3177 37.3776L26.9851 37.979L30.4456 34.8603C30.6269 34.697 30.7257 34.4816 30.7257 34.2589C30.7257 34.0287 30.6269 33.8133 30.4456 33.6574C28.5011 31.9124 25.8151 30.8208 22.849 30.8283C16.9168 30.8283 12.1133 35.1573 12.1133 40.5037C12.1133 45.85 16.9168 50.1865 22.849 50.1865C23.2692 50.1865 23.6317 49.9415 23.7553 49.5851C23.8789 49.2286 23.7224 48.8351 23.3763 48.6272L22.849 49.3326V50.1865C25.8069 50.1865 28.5011 49.1024 30.4456 47.35L47.163 32.2911C47.5338 31.9569 47.5338 31.4149 47.163 31.0807L43.7025 27.962C43.3318 27.6279 42.7303 27.6279 42.3595 27.962L25.6504 43.0135C24.8923 43.6892 23.9201 44.0531 22.8573 44.0605C22.6101 44.0605 22.3629 44.1496 22.1899 44.313C22.0169 44.4763 21.9097 44.6917 21.9097 44.9144H22.8573V44.0605C20.6821 44.0605 18.9107 42.464 18.9107 40.4963C18.9107 38.5359 20.6821 36.9469 22.8573 36.9395C23.9201 36.9395 24.8923 37.3033 25.6504 37.979C26.0211 38.3132 26.6226 38.3132 26.9934 37.979L26.3177 37.3776Z" fill="#3DD2CC"/>
<path d="M70.1343 26.1577H69.1868H70.1343V25.3037C66.0723 25.3037 62.2246 26.6032 59.1761 28.9645L59.794 29.6105L60.4614 29.0091L59.2502 27.9175L58.5829 28.519L59.2997 29.0759C61.9197 26.3285 63.3534 22.8533 63.3534 19.1926C63.3534 10.8166 55.798 4 46.4959 4C37.1938 4 29.6384 10.8166 29.6384 19.1926C29.6384 22.8533 31.0885 26.321 33.7003 29.0685L34.4171 28.5115L33.7498 27.9101L32.5386 29.0016L33.206 29.6031L33.8239 28.9571C30.7754 26.5958 26.9112 25.3037 22.8493 25.3037C13.5636 25.3037 6 32.1203 6 40.4963C6 48.8797 13.5636 55.6888 22.8575 55.6963C23.1047 55.6963 23.3518 55.6072 23.5249 55.4438C23.6979 55.2804 23.805 55.0651 23.805 54.8423H22.8575V55.6963C26.9194 55.6963 30.7672 54.3968 33.8157 52.0355L33.1977 51.3895L32.5304 51.9909L33.7415 53.0825L34.4089 52.481L33.6921 51.9241C31.072 54.6716 29.6384 58.1541 29.6384 61.8074C29.6384 70.1834 37.202 77 46.4959 77C55.798 77 63.3534 70.1834 63.3534 61.8074C63.3534 61.5847 63.2545 61.3619 63.0732 61.206C62.892 61.05 62.653 60.9535 62.4059 60.9535V61.8074H63.3534C63.3534 58.1467 61.9115 54.679 59.2914 51.9315L58.5746 52.4885L59.242 53.0899L60.4532 51.9984L59.7858 51.3969L59.1678 52.0429C62.2164 54.4117 66.0806 55.6963 70.1425 55.6963C79.4364 55.6963 87 48.8797 87 40.5037C87 32.1203 79.4364 25.3112 70.1425 25.3037C69.8953 25.3037 69.6482 25.3928 69.4751 25.5562C69.3021 25.7196 69.195 25.9349 69.195 26.1577H70.1343V27.0116C78.3818 27.0264 85.0803 33.0634 85.0967 40.4963C85.0803 47.9292 78.3818 53.9661 70.1343 53.981C66.5172 53.981 63.1144 52.8375 60.3955 50.736C60.0165 50.4464 59.4562 50.4613 59.1102 50.7806L57.899 51.8721C57.5529 52.184 57.5282 52.6964 57.8496 53.0305C60.1813 55.4809 61.4583 58.5402 61.4583 61.7926C61.4583 62.0154 61.5572 62.2381 61.7385 62.3941C61.9197 62.55 62.1587 62.6465 62.4059 62.6465V61.7926H61.4583C61.4419 69.2329 54.7434 75.2699 46.4959 75.2847C38.2484 75.2699 31.5417 69.2329 31.5334 61.8C31.5334 58.5402 32.8023 55.4735 35.134 53.0231C35.4553 52.6815 35.4388 52.1766 35.0845 51.8647L33.8734 50.7732C33.5273 50.4613 32.9588 50.439 32.588 50.7286C29.8691 52.83 26.4745 53.981 22.8657 53.981C22.6186 53.981 22.3714 54.0701 22.1984 54.2334C22.0253 54.3968 21.9182 54.6121 21.9182 54.8349H22.8657V53.981C14.61 53.9661 7.9115 47.9292 7.89503 40.4963C7.9115 33.0634 14.61 27.0264 22.8575 27.0116C26.4745 27.0116 29.8773 28.1551 32.5963 30.2565C32.9753 30.5461 33.5356 30.5239 33.8816 30.212L35.0928 29.1204C35.4388 28.8086 35.4635 28.2962 35.1422 27.9621C32.8105 25.5191 31.5334 22.4523 31.5334 19.2C31.5499 11.7596 38.2484 5.72271 46.4959 5.70786C54.7434 5.72271 61.4419 11.7596 61.4583 19.1926C61.4583 22.4523 60.1895 25.5265 57.866 27.9695C57.5447 28.3111 57.5612 28.816 57.9155 29.1279L59.1266 30.2194C59.4727 30.5313 60.0412 30.5536 60.412 30.264C63.1309 28.1625 66.5255 27.0116 70.1343 27.0116C70.3814 27.0116 70.6286 26.9225 70.8017 26.7591C70.9747 26.5958 71.0818 26.3804 71.0818 26.1577H70.1343V27.0116V26.1577Z" fill="#3DD2CC"/>
<path d="M43.0352 58.6739C42.1124 59.5056 41.6016 60.612 41.6016 61.7926C41.6016 64.2208 43.8015 66.2034 46.4957 66.2034C49.1899 66.2034 51.3898 64.2282 51.3898 61.7926C51.3898 60.612 50.879 59.5056 49.9562 58.6739L33.2388 43.615L36.6993 40.4963L53.4167 55.5627C55.1881 57.1591 56.2839 59.3645 56.2839 61.8001C56.2839 66.6712 51.9007 70.6216 46.4957 70.6216C41.0825 70.6216 36.7075 66.6712 36.7075 61.8001C36.7075 59.3645 37.8033 57.1591 39.5747 55.5627L43.0352 58.6739Z" fill="#3DD2CC"/>
<path d="M43.0354 58.6738L42.3681 58.0724C41.2722 59.06 40.6543 60.3966 40.6625 61.7925C40.6625 64.6959 43.2826 67.0572 46.5042 67.0572C49.7257 67.0572 52.3458 64.7033 52.3458 61.7925C52.3458 61.5624 52.2469 61.347 52.0656 61.1911C51.8844 61.0277 51.6454 60.9386 51.3983 60.9386V61.7925H52.3458C52.3458 60.3891 51.7361 59.06 50.6403 58.065L34.582 43.615L36.6995 41.6992L52.7413 56.164C54.3479 57.612 55.3366 59.5946 55.3366 61.8C55.3366 62.201 55.6415 62.5425 56.0699 62.6316C56.4984 62.7207 56.9433 62.5277 57.1328 62.1713L56.2759 61.8H55.3284C55.3201 66.2033 51.3653 69.7601 46.4877 69.7675C41.6018 69.7601 37.6552 66.1959 37.647 61.8C37.647 59.5946 38.6357 57.612 40.2341 56.164L39.5667 55.5626L38.8993 56.164L42.3598 59.2827L43.0354 58.6738L42.3681 58.0724L43.0354 58.6738L43.7028 58.0724L40.2423 54.9537C39.8716 54.6195 39.2701 54.6195 38.8993 54.9537C36.9549 56.6987 35.7519 59.1268 35.7519 61.8C35.7519 67.1463 40.5554 71.4754 46.4877 71.4754C52.4199 71.4754 57.2234 67.1463 57.2234 61.8C57.2234 61.399 56.9186 61.0574 56.4901 60.9683C56.0617 60.8792 55.6168 61.0723 55.4273 61.4287L56.2841 61.8H57.2316C57.2316 59.1268 56.0287 56.7061 54.0843 54.9537L37.3751 39.8874C37.1938 39.724 36.9549 39.6349 36.7077 39.6349C36.4523 39.6349 36.2133 39.724 36.0403 39.8874L32.5798 43.0061C32.2091 43.3402 32.2091 43.8823 32.5798 44.2164L49.289 59.2827C50.0388 59.9659 50.4425 60.8495 50.4508 61.8C50.4508 62.0227 50.5496 62.2455 50.7309 62.4014C50.9122 62.5574 51.1511 62.6539 51.3983 62.6539V61.8H50.4508C50.4508 63.7603 48.6793 65.3494 46.5042 65.3568C44.329 65.3568 42.5576 63.7603 42.5576 61.8C42.5576 60.8421 42.9613 59.9585 43.7111 59.2827C44.0818 58.9486 44.0818 58.4065 43.7111 58.0724L43.0354 58.6738Z" fill="#3DD2CC"/>
<path d="M46.4875 49.3178L47.1549 48.7163L38.0341 40.4963L46.4875 32.8852L54.941 40.4963L45.8201 48.7163L46.4875 49.3178L47.1549 48.7163L46.4875 49.3178L47.1549 49.9192L56.9431 41.0978C57.1161 40.9418 57.2233 40.7191 57.2233 40.4963C57.2233 40.2735 57.1244 40.0508 56.9431 39.8948L47.1549 31.0659C46.7841 30.7318 46.1827 30.7318 45.8119 31.0659L36.0237 39.8874C35.6529 40.2215 35.6529 40.7636 36.0237 41.0978L45.8201 49.9267C45.9932 50.0826 46.2403 50.1791 46.4875 50.1791C46.7347 50.1791 46.9819 50.09 47.1549 49.9267L46.4875 49.3178Z" fill="#3DD2CC"/>
</g>
<defs>
<filter id="filter0_d_1310_3" x="0" y="0" width="93" height="85" filterUnits="userSpaceOnUse" color-interpolation-filters="sRGB">
<feFlood flood-opacity="0" result="BackgroundImageFix"/>
<feColorMatrix in="SourceAlpha" type="matrix" values="0 0 0 0 0 0 0 0 0 0 0 0 0 0 0 0 0 0 127 0" result="hardAlpha"/>
<feOffset dy="2"/>
<feGaussianBlur stdDeviation="3"/>
<feComposite in2="hardAlpha" operator="out"/>
<feColorMatrix type="matrix" values="0 0 0 0 0.239216 0 0 0 0 0.823529 0 0 0 0 0.8 0 0 0 0.2 0"/>
<feBlend mode="normal" in2="BackgroundImageFix" result="effect1_dropShadow_1310_3"/>
<feBlend mode="normal" in="SourceGraphic" in2="effect1_dropShadow_1310_3" result="shape"/>
</filter>
</defs>
</svg>
